<svg xmlns="http://www.w3.org/2000/svg" width="200" height="200" viewBox="0 0 200 200" fill="none">
<path d="M 184.68,45.7 L 101.99,2.08 C 100.61,1.29 98.93,1.26 97.52,2.01 L 15.61,45.06 C 14.37,45.74 14.01,46.81 14.06,48.52 L 14.18,52.71 L 14.11,151.94 C 14.11,153.49 14.79,155.02 16.38,155.71 L 96.98,197.56 C 98.72,198.46 100.5,198.14 101.88,197.38 L 183.79,155.08 C 185.1,154.46 185.46,153.32 185.46,151.94 L 185.19,47.91 C 185.19,47.01 185.08,46.21 184.68,45.7 Z M 173.86,146.36 L 100.09,185.61 C 99.41,186.02 98.92,185.88 98.51,185.67 L 25.68,146.61 V 52.47 L 99.12,13.08 L 173.86,52.47 V 146.36 Z" fill="url(#paint0_linear_201_108)"/>
<path d="M 15.07,57.91 L 30.91,38.44 L 44.91,41.2 L 25.38,52.62 L 25.09,146.36 L 30.09,160.74 L 14.71,153.03 L 14.64,114.91 L 15.07,57.91 Z" fill="url(#paint1_linear_201_108)"/>
<path d="M 15.09,74.81 L 24.99,56.01 L 25.09,82.1 L 16.12,74.94 L 15.09,74.81 Z" fill="url(#paint2_linear_201_108)"/>
<path d="M 14.64,89.84 L 24.92,95.02 L 25.09,90.79 L 15.61,74.71 L 14.64,89.84 Z" fill="url(#paint3_linear_201_108)"/>
<path d="M 14.61,115.08 L 24.72,118.69 L 15.47,133.41 L 14.61,115.08 Z" fill="url(#paint4_linear_201_108)"/>
<path d="M 15.47,133.41 L 24.72,137.13 L 25.09,146.36 L 15.47,133.41 Z" fill="url(#paint5_linear_201_108)"/>
<path d="M 29.62,160.43 L 46.79,158.41 L 59.91,166.26 L 64.31,178.42 L 29.62,160.43 Z" fill="url(#paint6_linear_201_108)"/>
<path d="M 62.91,177.71 L 67.86,174.1 L 77.31,174.23 L 75.16,183.2 L 62.91,177.71 Z" fill="url(#paint7_linear_201_108)"/>
<path d="M 147.32,171.96 L 169.86,160.09 L 184.75,153.03 L 185.02,136.52 L 173.72,152.76 L 147.32,162.92 V 171.96 Z" fill="url(#paint8_linear_201_108)"/>
<path d="M 185.09,136.52 L 176.05,120.01 L 185.02,115.72 L 185.09,136.52 Z" fill="url(#paint9_linear_201_108)"/>
<path d="M 174.89,100.07 L 185.16,100.13 V 90 L 175.84,92.96 L 174.89,100.07 Z" fill="url(#paint10_linear_201_108)"/>
<path d="M 175.84,92.96 L 185.09,74.71 L 185.16,63.41 L 176.05,51.16 L 174.82,54.84 L 175.84,92.96 Z" fill="url(#paint11_linear_201_108)"/>
<path d="M 171.34,38.92 L 175.84,51.16 L 173.41,49.35 L 171.07,39.26 L 171.34,38.92 Z" fill="#E78888"/>
<path d="M 140.11,23.01 L 184.41,45.33 L 185.09,56.92 L 171.34,38.92 L 154.2,40.25 L 139.01,33.12 L 140.11,23.01 Z" fill="url(#paint12_linear_201_108)"/>
<path d="M 100.64,4.45 L 137.71,22.74 L 139.01,24.76 L 126.06,26.09 L 110.22,17.05 L 115.03,13.08 L 98.51,12.33 L 84.13,13.08 L 100.64,4.45 Z" fill="url(#paint13_linear_201_108)"/>
<path d="M 51.21,26.09 L 98.51,3.12 L 81.37,12.33 L 67.46,22.74 L 59.88,26.09 H 51.21 Z" fill="url(#paint14_linear_201_108)"/>
<path d="M 59.88,26.09 L 67.46,23.01 L 77.15,25.03 L 62.33,33.12 L 59.88,26.09 Z" fill="url(#paint15_linear_201_108)"/>
<path d="M 126.06,26.09 L 134.22,24.42 L 139.83,25.03 L 139.01,33.12 L 126.06,26.09 Z" fill="url(#paint16_linear_201_108)"/>
<path d="M 124.04,172.85 L 137.51,177.31 L 123.02,186.08 L 121.07,174.92 L 124.04,172.85 Z" fill="url(#paint17_linear_201_108)"/>
<path d="M 43.41,52.54 L 62.27,52.47 L 62.4,130.22 L 92.62,130.02 V 148.03 L 43.41,148.23 V 52.54 Z" fill="url(#paint18_linear_201_108)"/>
<path d="M 43.41,52.54 L 54.71,52.47 L 62.4,57.46 V 61.82 L 43.41,68.71 V 52.54 Z" fill="url(#paint19_linear_201_108)"/>
<path d="M 43.41,75.83 L 57.32,78.4 L 58.14,84.71 L 43.41,91.06 V 75.83 Z" fill="url(#paint20_linear_201_108)"/>
<path d="M 48.95,117.41 L 51.01,106.73 L 62.27,102.82 V 112.67 L 48.95,117.41 Z" fill="url(#paint21_linear_201_108)"/>
<path d="M 43.41,130.22 L 64.67,131.04 L 68.28,148.1 L 43.41,148.03 V 130.22 Z" fill="url(#paint22_linear_201_108)"/>
<path d="M 64.67,131.86 L 78.27,138.65 L 81.44,142.75 L 76.77,147.9 L 68.28,147.49 L 64.67,131.86 Z" fill="url(#paint23_linear_201_108)"/>
<path d="M 81.44,142.75 L 91.88,137.13 L 92.35,147.9 L 83.65,147.62 L 81.44,142.75 Z" fill="url(#paint24_linear_201_108)"/>
<path d="M 98.17,52.54 L 133.61,52.4 C 145.04,52.07 158.71,62.94 158.92,76.85 C 159.12,87.19 150.01,96.51 140.24,99.01 C 150.08,99.22 160.66,109.06 160.66,121.31 C 160.66,135.9 148.01,147.76 132.03,147.76 H 98.17 V 52.54 Z M 117.84,69.06 V 91.26 H 129.84 C 136.69,91.26 140.31,84.91 140.31,80.61 C 140.31,74.43 135.94,69.06 130.64,69.06 H 117.84 Z M 117.63,107.21 V 130.36 H 131.01 C 137.02,130.36 141.25,124.81 141.25,119.6 C 141.25,112.81 136.82,107.21 130.74,107.21 H 117.63 Z" fill="url(#paint25_linear_201_108)"/>
<path d="M 98.17,52.61 L 117.91,52.54 L 120.74,52.4 L 131.83,52.47 L 133.88,53.15 L 135.15,53.01 C 143.03,52.74 150.29,57.94 155.03,64.9 L 141.25,72.03 L 133.88,54.35 L 120.47,62.63 L 106.16,73.31 L 119.51,63.55 L 117.91,52.61 H 98.17 Z" fill="url(#paint26_linear_201_108)"/>
<path d="M 133.88,53.15 L 142.14,54.21 L 149.95,57.26 L 155.03,64.9 L 141.25,72.03 L 133.88,53.15 Z" fill="url(#paint27_linear_201_108)"/>
<path d="M 147.26,74.23 L 157.47,85.12 L 158.51,80.2 L 158.65,74.71 L 156.31,68.07 L 155.03,64.9 L 141.25,72.03 L 147.26,74.23 Z" fill="url(#paint28_linear_201_108)"/>
<path d="M 140.24,99.01 L 148.56,100.96 L 155.59,106.05 L 158.92,111.92 L 152.03,116.66 L 145.91,105.23 L 139.01,100.07 L 140.24,99.01 Z" fill="url(#paint29_linear_201_108)"/>
<path d="M 152.03,116.66 L 160.32,118.75 L 159.71,127.04 L 155.93,135.43 L 145.18,144.72 L 144.23,132.4 L 152.03,116.66 Z" fill="url(#paint30_linear_201_108)"/>
<path d="M 144.23,132.4 L 133.07,147.76 L 137.3,147.01 L 145.18,144.44 L 144.23,132.4 Z" fill="url(#paint31_linear_201_108)"/>
<path d="M 121.07,140.11 L 133.07,147.76 L 122.82,147.62 L 121.07,140.11 Z" fill="url(#paint32_linear_201_108)"/>
<path d="M 98.17,141.13 L 102.01,147.62 L 98.17,147.76 V 141.13 Z" fill="url(#paint33_linear_201_108)"/>
<path d="M 98.17,56.01 L 103.13,52.54 L 101.04,69.81 L 103.74,78.2 L 98.17,89.94 V 56.01 Z" fill="url(#paint34_linear_201_108)"/>
<path d="M 98.72,70.01 L 103.74,78.2 L 117.63,79.45 V 94.14 L 106.81,91 L 103.74,78.2 L 98.72,70.01 Z" fill="url(#paint35_linear_201_108)"/>
<path d="M 98.72,89.94 L 114.39,110.04 L 102.01,114.17 L 98.17,106.73 L 98.72,89.94 Z" fill="url(#paint36_linear_201_108)"/>
<path d="M 98.17,117.41 L 102.01,114.17 L 114.93,110.24 L 117.36,131.24 L 111.55,139.56 L 98.17,144.99 V 117.41 Z" fill="url(#paint37_linear_201_108)"/>
<path d="M 117.63,94.14 L 132.03,100.07 L 120.06,105.23 L 117.63,94.14 Z" fill="url(#paint38_linear_201_108)"/>
<path d="M 58.14,77.59 L 61.93,62.43 L 62.27,84.71 L 59.37,84.64 L 58.14,77.59 Z" fill="url(#paint39_linear_201_108)"/>
<path d="M 58.14,84.71 L 62.27,85.46 V 90.72 L 58.14,84.71 Z" fill="url(#paint40_linear_201_108)"/>
<defs>
<linearGradient id="paint0_linear_201_108" x1="41.9663" y1="176.991" x2="165.116" y2="21.6117" gradientUnits="userSpaceOnUse">
<stop stop-color="#472380"/>
<stop offset="0.5" stop-color="#A72681"/>
<stop offset="1" stop-color="#E78888"/>
</linearGradient>
<linearGradient id="paint1_linear_201_108" x1="14.6074" y1="99.5872" x2="44.9067" y2="99.5872" gradientUnits="userSpaceOnUse">
<stop stop-color="#552880"/>
<stop offset="1" stop-color="#A7418D"/>
</linearGradient>
<linearGradient id="paint2_linear_201_108" x1="15.0864" y1="69.0757" x2="25.0864" y2="69.0757" gradientUnits="userSpaceOnUse">
<stop stop-color="#89358B"/>
<stop offset="1" stop-color="#9A368C"/>
</linearGradient>
<linearGradient id="paint3_linear_201_108" x1="14.6367" y1="84.8647" x2="25.0864" y2="84.8647" gradientUnits="userSpaceOnUse">
<stop stop-color="#6A2B82"/>
<stop offset="1" stop-color="#7A2F85"/>
</linearGradient>
<linearGradient id="paint4_linear_201_108" x1="14.6074" y1="124.246" x2="24.7217" y2="124.246" gradientUnits="userSpaceOnUse">
<stop stop-color="#602A83"/>
<stop offset="1" stop-color="#752E86"/>
</linearGradient>
<linearGradient id="paint5_linear_201_108" x1="15.4702" y1="139.881" x2="25.0864" y2="139.881" gradientUnits="userSpaceOnUse">
<stop stop-color="#712D87"/>
<stop offset="1" stop-color="#80308A"/>
</linearGradient>
<linearGradient id="paint6_linear_201_108" x1="29.623" y1="168.413" x2="64.3064" y2="168.413" gradientUnits="userSpaceOnUse">
<stop stop-color="#572680"/>
<stop offset="1" stop-color="#582781"/>
</linearGradient>
<linearGradient id="paint7_linear_201_108" x1="62.9072" y1="178.652" x2="77.3109" y2="178.652" gradientUnits="userSpaceOnUse">
<stop stop-color="#7A2582"/>
<stop offset="1" stop-color="#932583"/>
</linearGradient>
<linearGradient id="paint8_linear_201_108" x1="147.318" y1="154.242" x2="185.157" y2="154.242" gradientUnits="userSpaceOnUse">
<stop stop-color="#D35B79"/>
<stop offset="1" stop-color="#DB727A"/>
</linearGradient>
<linearGradient id="paint9_linear_201_108" x1="176.047" y1="126.118" x2="185.087" y2="126.118" gradientUnits="userSpaceOnUse">
<stop stop-color="#D5677A"/>
<stop offset="1" stop-color="#DB727A"/>
</linearGradient>
<linearGradient id="paint10_linear_201_108" x1="174.886" y1="95.0642" x2="185.157" y2="95.0642" gradientUnits="userSpaceOnUse">
<stop stop-color="#CF6278"/>
<stop offset="1" stop-color="#D16679"/>
</linearGradient>
<linearGradient id="paint11_linear_201_108" x1="174.816" y1="65.9378" x2="185.157" y2="65.9378" gradientUnits="userSpaceOnUse">
<stop stop-color="#D06479"/>
<stop offset="1" stop-color="#DB727A"/>
</linearGradient>
<linearGradient id="paint12_linear_201_108" x1="139.008" y1="31.6311" x2="185.157" y2="31.6311" gradientUnits="userSpaceOnUse">
<stop stop-color="#E08086"/>
<stop offset="1" stop-color="#E08186"/>
</linearGradient>
<linearGradient id="paint13_linear_201_108" x1="98.5107" y1="15.2424" x2="139.008" y2="15.2424" gradientUnits="userSpaceOnUse">
<stop stop-color="#B0607B"/>
<stop offset="1" stop-color="#D46A7C"/>
</linearGradient>
<linearGradient id="paint14_linear_201_108" x1="51.2056" y1="14.6176" x2="98.5107" y2="14.6176" gradientUnits="userSpaceOnUse">
<stop stop-color="#86447E"/>
<stop offset="1" stop-color="#B05F7B"/>
</linearGradient>
<linearGradient id="paint15_linear_201_108" x1="59.8765" y1="28.0702" x2="77.1465" y2="28.0702" gradientUnits="userSpaceOnUse">
<stop stop-color="#CC5B83"/>
<stop offset="1" stop-color="#D25E84"/>
</linearGradient>
<linearGradient id="paint16_linear_201_108" x1="126.063" y1="28.5441" x2="139.827" y2="28.5441" gradientUnits="userSpaceOnUse">
<stop stop-color="#D6637A"/>
<stop offset="1" stop-color="#DF7381"/>
</linearGradient>
<linearGradient id="paint17_linear_201_108" x1="121.066" y1="179.466" x2="137.506" y2="179.466" gradientUnits="userSpaceOnUse">
<stop stop-color="#D81E82"/>
<stop offset="1" stop-color="#D62483"/>
</linearGradient>
<linearGradient id="paint18_linear_201_108" x1="50.2161" y1="144.981" x2="72.1909" y2="66.0131" gradientUnits="userSpaceOnUse">
<stop stop-color="#5E2481"/>
<stop offset="0.5" stop-color="#952583"/>
<stop offset="1" stop-color="#A7418D"/>
</linearGradient>
<linearGradient id="paint19_linear_201_108" x1="43.4077" y1="60.6176" x2="62.3964" y2="60.6176" gradientUnits="userSpaceOnUse">
<stop stop-color="#7A2982"/>
<stop offset="1" stop-color="#912B84"/>
</linearGradient>
<linearGradient id="paint20_linear_201_108" x1="43.4077" y1="83.4454" x2="58.1376" y2="83.4454" gradientUnits="userSpaceOnUse">
<stop stop-color="#712982"/>
<stop offset="1" stop-color="#802C84"/>
</linearGradient>
<linearGradient id="paint21_linear_201_108" x1="48.9517" y1="110.115" x2="62.2663" y2="110.115" gradientUnits="userSpaceOnUse">
<stop stop-color="#B92D91"/>
<stop offset="1" stop-color="#C23492"/>
</linearGradient>
<linearGradient id="paint22_linear_201_108" x1="43.4077" y1="139.161" x2="68.2759" y2="139.161" gradientUnits="userSpaceOnUse">
<stop stop-color="#612481"/>
<stop offset="1" stop-color="#7A2883"/>
</linearGradient>
<linearGradient id="paint23_linear_201_108" x1="64.6665" y1="139.881" x2="81.4359" y2="139.881" gradientUnits="userSpaceOnUse">
<stop stop-color="#972584"/>
<stop offset="1" stop-color="#9A2585"/>
</linearGradient>
<linearGradient id="paint24_linear_201_108" x1="81.4355" y1="142.517" x2="92.3511" y2="142.517" gradientUnits="userSpaceOnUse">
<stop stop-color="#972584"/>
<stop offset="1" stop-color="#9A2585"/>
</linearGradient>
<linearGradient id="paint25_linear_201_108" x1="115.093" y1="139.626" x2="139.561" y2="63.1043" gradientUnits="userSpaceOnUse">
<stop stop-color="#A62680"/>
<stop offset="0.5" stop-color="#C13878"/>
<stop offset="1" stop-color="#D2617D"/>
</linearGradient>
<linearGradient id="paint26_linear_201_108" x1="98.1704" y1="62.8671" x2="155.026" y2="62.8671" gradientUnits="userSpaceOnUse">
<stop stop-color="#B23A73"/>
<stop offset="1" stop-color="#CC5476"/>
</linearGradient>
<linearGradient id="paint27_linear_201_108" x1="133.875" y1="62.5966" x2="155.026" y2="62.5966" gradientUnits="userSpaceOnUse">
<stop stop-color="#DF627B"/>
<stop offset="1" stop-color="#E26A7C"/>
</linearGradient>
<linearGradient id="paint28_linear_201_108" x1="141.251" y1="76.9704" x2="158.681" y2="76.9704" gradientUnits="userSpaceOnUse">
<stop stop-color="#CC5476"/>
<stop offset="1" stop-color="#D15F78"/>
</linearGradient>
<linearGradient id="paint29_linear_201_108" x1="139.008" y1="107.837" x2="158.924" y2="107.837" gradientUnits="userSpaceOnUse">
<stop stop-color="#C84A74"/>
<stop offset="1" stop-color="#D7607A"/>
</linearGradient>
<linearGradient id="paint30_linear_201_108" x1="144.226" y1="129.907" x2="160.665" y2="129.907" gradientUnits="userSpaceOnUse">
<stop stop-color="#CB4D76"/>
<stop offset="1" stop-color="#D15D79"/>
</linearGradient>
<linearGradient id="paint31_linear_201_108" x1="133.066" y1="140.038" x2="145.176" y2="140.038" gradientUnits="userSpaceOnUse">
<stop stop-color="#E73A89"/>
<stop offset="1" stop-color="#E14888"/>
</linearGradient>
<linearGradient id="paint32_linear_201_108" x1="121.066" y1="143.936" x2="133.066" y2="143.936" gradientUnits="userSpaceOnUse">
<stop stop-color="#E73A89"/>
<stop offset="1" stop-color="#E14888"/>
</linearGradient>
<linearGradient id="paint33_linear_201_108" x1="98.1704" y1="144.445" x2="102.007" y2="144.445" gradientUnits="userSpaceOnUse">
<stop stop-color="#A62680"/>
<stop offset="1" stop-color="#A72681"/>
</linearGradient>
<linearGradient id="paint34_linear_201_108" x1="98.1704" y1="71.2351" x2="103.74" y2="71.2351" gradientUnits="userSpaceOnUse">
<stop stop-color="#B23A73"/>
<stop offset="1" stop-color="#B73D74"/>
</linearGradient>
<linearGradient id="paint35_linear_201_108" x1="98.7153" y1="85.076" x2="117.632" y2="85.076" gradientUnits="userSpaceOnUse">
<stop stop-color="#E73A89"/>
<stop offset="1" stop-color="#DA4088"/>
</linearGradient>
<linearGradient id="paint36_linear_201_108" x1="98.1704" y1="102.053" x2="114.384" y2="102.053" gradientUnits="userSpaceOnUse">
<stop stop-color="#D03185"/>
<stop offset="1" stop-color="#E14888"/>
</linearGradient>
<linearGradient id="paint37_linear_201_108" x1="98.1704" y1="127.579" x2="117.632" y2="127.579" gradientUnits="userSpaceOnUse">
<stop stop-color="#A62680"/>
<stop offset="0.473958" stop-color="#AC2780"/>
<stop offset="1" stop-color="#B42981"/>
</linearGradient>
<linearGradient id="paint38_linear_201_108" x1="117.632" y1="99.6821" x2="132.031" y2="99.6821" gradientUnits="userSpaceOnUse">
<stop stop-color="#B93677"/>
<stop offset="1" stop-color="#C34179"/>
</linearGradient>
<linearGradient id="paint39_linear_201_108" x1="58.1372" y1="73.5333" x2="62.2663" y2="73.5333" gradientUnits="userSpaceOnUse">
<stop stop-color="#9A3389"/>
<stop offset="1" stop-color="#993289"/>
</linearGradient>
<linearGradient id="paint40_linear_201_108" x1="58.1372" y1="87.7291" x2="62.2663" y2="87.7291" gradientUnits="userSpaceOnUse">
<stop stop-color="#E73A89"/>
<stop offset="1" stop-color="#DA4088"/>
</linearGradient>
</defs>
</svg>